<svg width="24" height="24" fill="none" xmlns="http://www.w3.org/2000/svg"><path opacity=".5" d="M11 16a1 1 0 10-2 0h2zM9 8a1 1 0 002 0H9zM4 4h5V2H4v2zm5 16H4v2h5v-2zm-5 0V4H2v16h2zm5-4v4h2v-4H9zM9 4v4h2V4H9zM4 20H2a2 2 0 002 2v-2zm5 2a2 2 0 002-2H9v2zM9 4h2a2 2 0 00-2-2v2zM4 2a2 2 0 00-2 2h2V2z" fill="#3C58DB"/><path d="M6 12a1 1 0 011-1h6v2H7a1 1 0 01-1-1zM13 4a2 2 0 012-2h5a2 2 0 012 2v16a2 2 0 01-2 2h-5a2 2 0 01-2-2v-7h3v1.793a.5.5 0 00.854.353l2.792-2.792a.5.5 0 000-.708l-2.792-2.792a.5.5 0 00-.854.353V11h-3V4z" fill="#3C58DB"/></svg>