<svg width="24" height="24" fill="none" xmlns="http://www.w3.org/2000/svg"><g opacity=".7" fill-rule="evenodd" clip-rule="evenodd" fill="#fff"><path d="M7 4H6a2 2 0 00-2 2v14a2 2 0 002 2h12a2 2 0 002-2V6a2 2 0 00-2-2h-1v2a1 1 0 01-1 1H8a1 1 0 01-1-1V4zm2 7a1 1 0 100 2h6a1 1 0 100-2H9zm-1 6a1 1 0 011-1h6a1 1 0 110 2H9a1 1 0 01-1-1z"/><path opacity=".4" d="M13 3.5a1 1 0 11-2 0 1 1 0 012 0zm1.45-.498a2.5 2.5 0 00-4.9 0A.507.507 0 009.5 3h-1a.5.5 0 00-.5.5v2a.5.5 0 00.5.5h7a.5.5 0 00.5-.5v-2a.5.5 0 00-.5-.5h-1c-.017 0-.033 0-.05.002z"/></g></svg>