<?xml version="1.0" standalone="no"?><!DOCTYPE svg PUBLIC "-//W3C//DTD SVG 1.1//EN" "http://www.w3.org/Graphics/SVG/1.1/DTD/svg11.dtd"><svg t="1680146436660" class="icon" viewBox="0 0 1024 1024" version="1.1" xmlns="http://www.w3.org/2000/svg" p-id="3963" xmlns:xlink="http://www.w3.org/1999/xlink" width="32" height="32"><path d="M800 163H226.2c-52.8 0-95.6 42.8-95.6 95.6v573.8c0 52.8 42.8 95.6 95.6 95.6H800c52.8 0 95.6-42.8 95.6-95.6V258.6c0-52.8-42.8-95.6-95.6-95.6zM465.3 832.4H250.8c-6.7 0-12.7-2.8-17-7.2-4.6-3.9-7.5-9.6-7.5-16.7V593.3c0-13.2 10.7-23.9 23.9-23.9s23.9 10.7 23.9 23.9l-0.8 157.2 162.3-162.3 33.8 33.8-162.6 162.6h158.5c13.2 0 23.9 10.7 23.9 23.9s-10.7 23.9-23.9 23.9zM800 497.7c0 13.2-10.7 23.9-23.9 23.9s-23.9-10.7-23.9-23.9l0.8-157.2-162.4 162.3-33.8-33.8 162.5-162.5H560.8c-13.2 0-23.9-10.7-23.9-23.9s10.7-23.9 23.9-23.9h214.5c6.7 0 12.7 2.8 17 7.2 4.6 3.9 7.6 9.6 7.6 16.7v215.1z" fill="#140202" p-id="3964"></path></svg>