<svg xmlns="http://www.w3.org/2000/svg" width="24" height="24" fill="none"><g opacity=".7" fill-rule="evenodd" clip-rule="evenodd" fill="#fff"><path opacity=".4" d="M11.949 12.48a4.207 4.207 0 004.21-4.233 4.206 4.206 0 00-4.21-4.234 4.206 4.206 0 00-4.21 4.234 4.207 4.207 0 004.21 4.233zm9.14-3.248c.604-2.377-1.168-4.512-3.425-4.512-.245 0-.48.027-.71.073-.03.007-.064.022-.082.05-.02.033-.005.08.018.11a5.807 5.807 0 011.067 3.37 5.762 5.762 0 01-.984 3.241.158.158 0 00.106.244c.158.028.32.042.484.047 1.643.043 3.118-1.02 3.525-2.623zM6.335 4.72c.245 0 .48.026.709.073.031.007.064.022.082.05.022.034.006.08-.016.11a5.804 5.804 0 00-1.068 3.37c0 1.198.357 2.314.984 3.241a.158.158 0 01-.107.244 3.399 3.399 0 01-.483.047c-1.643.043-3.118-1.02-3.524-2.622C2.307 6.855 4.079 4.72 6.336 4.72z"/><path d="M22.81 14.83c-.302-.645-1.028-1.087-2.132-1.304-.521-.128-1.931-.308-3.243-.284-.02.003-.03.017-.032.026-.003.012.002.034.028.047.607.302 2.95 1.614 2.655 4.382-.012.12.084.223.203.205.576-.083 2.06-.404 2.52-1.402a1.923 1.923 0 000-1.67zm-10.86-.277c-3.45 0-6.362.564-6.362 2.74s2.93 2.72 6.361 2.72c3.45 0 6.361-.564 6.361-2.74s-2.93-2.72-6.36-2.72zM1.19 14.83c.301-.645 1.027-1.087 2.13-1.304.523-.128 1.932-.308 3.245-.283.02.002.03.015.03.024.004.014-.002.035-.027.049-.607.302-2.95 1.614-2.656 4.38.013.121-.082.224-.201.206-.577-.082-2.06-.404-2.52-1.402a1.918 1.918 0 010-1.67z"/></g></svg>