<svg width="24" height="24" fill="none" xmlns="http://www.w3.org/2000/svg"><g opacity=".7" fill="#fff"><path fill-rule="evenodd" clip-rule="evenodd" d="M6 4h.5v1A1.5 1.5 0 008 6.5h8A1.5 1.5 0 0017.5 5V4h.5a2 2 0 012 2v14a2 2 0 01-2 2H6a2 2 0 01-2-2V6a2 2 0 012-2zm10.76 7.65a1 1 0 00-1.52-1.3l-2.45 2.858-1.775-1.066a1 1 0 00-1.283.218l-2.5 3a1 1 0 101.536 1.28l1.952-2.342 1.765 1.06a1 1 0 001.274-.207l3-3.5z"/><path opacity=".4" d="M8 3a1 1 0 011-1h6a1 1 0 011 1v1a1 1 0 01-1 1H9a1 1 0 01-1-1V3z"/></g></svg>