<svg xmlns="http://www.w3.org/2000/svg" width="24" height="24" fill="none"><g opacity=".7" fill-rule="evenodd" clip-rule="evenodd" fill="#fff"><path opacity=".4" d="M11 1.5a1 1 0 112 0V3a1 1 0 01-2 0V1.5zM3.161 5.576A1 1 0 014.576 4.16l1.06 1.06a1 1 0 01-1.414 1.415l-1.06-1.06zm17.68-1.417a1 1 0 00-1.415 0l-1.062 1.063a1 1 0 001.414 1.414l1.063-1.063a1 1 0 000-1.414z"/><path d="M12 6a7 7 0 017 7v7h3a1 1 0 110 2H2a1 1 0 110-2h3v-7a7 7 0 017-7zm-2.5 8.8L12.633 9 12 13.2h2.5L11.367 19 12 14.8H9.5z"/></g></svg>