<svg width="24" height="24" fill="none" xmlns="http://www.w3.org/2000/svg"><g opacity=".7" fill="#fff"><path opacity=".4" d="M7.139 19.355A.75.75 0 017.777 19h8.45a.75.75 0 01.637.355l1.165 1.882a.5.5 0 01-.425.763H6.4a.5.5 0 01-.425-.763l1.165-1.882z"/><path fill-rule="evenodd" clip-rule="evenodd" d="M4.25 2.5a2 2 0 00-2 2v11a2 2 0 002 2h15.5a2 2 0 002-2v-11a2 2 0 00-2-2H4.25zm6.75 4a1 1 0 112 0v7a1 1 0 11-2 0v-7zm-5 2a1 1 0 012 0v5a1 1 0 11-2 0v-5zm11 1a1 1 0 00-1 1v3a1 1 0 102 0v-3a1 1 0 00-1-1z"/></g></svg>