<svg xmlns="http://www.w3.org/2000/svg" width="24" height="24" fill="none"><g opacity=".7" fill="#fff"><path d="M2.518 6.215l8.76-4.817a1.5 1.5 0 011.445 0l8.759 4.817a1 1 0 01.518.876v1.843a1 1 0 01-.485.857l-8.743 5.246a1.5 1.5 0 01-1.544 0L2.486 9.791A1 1 0 012 8.934V7.09a1 1 0 01.518-.876z"/><path opacity=".4" d="M2.757 12.454a.5.5 0 00-.757.43v3.55a1 1 0 00.486.857l9 5.4a1 1 0 001.028 0l9-5.4a1 1 0 00.486-.857v-3.55a.5.5 0 00-.757-.43l-1.758 1.055a1 1 0 00-.485.857v.935l-7 4.2-7-4.2v-.935a1 1 0 00-.486-.857l-1.757-1.055z"/></g></svg>